<svg width="240" height="240" viewBox="0 0 240 240" fill="none" xmlns="http://www.w3.org/2000/svg">
<g clip-path="url(#clip0_2_36)">
<path fill-rule="evenodd" clip-rule="evenodd" d="M120.401 207.127C116.473 203.18 114.861 197.093 114.197 189.14L79.7963 196.888C77.8911 197.64 77.1095 196.8 76.9238 195.07L77.5784 186.795C77.8911 185.486 78.5359 184.411 79.7181 183.737L110.123 162.125L108.325 116.987L23.5105 133.352C21.4784 133.88 20.5209 133.137 20.8531 130.832L22.3284 117.71L106.811 70.296L105.462 29.9844C106.342 17.7913 110.162 8.91025 116.239 5.23668C119.59 3.21426 121.339 3.06771 124.69 4.75795C131.246 8.08956 135.388 17.2344 136.316 29.9844L134.968 70.296L219.45 117.71L220.926 130.832C221.248 133.128 220.291 133.87 218.268 133.352L133.454 117.007L131.646 162.135L162.051 183.747C163.223 184.411 163.878 185.476 164.191 186.805L164.845 195.08C164.669 196.8 163.878 197.65 161.973 196.897L127.572 189.15C126.898 197.132 125.286 203.219 121.329 207.175C120.958 207.527 120.753 207.478 120.401 207.127Z" fill="black"/>
</g>
<defs>
<clipPath id="clip0_2_36">
<rect width="169.784" height="169.784" fill="white" transform="translate(0.833923 120.055) rotate(-45)"/>
</clipPath>
</defs>
</svg>
