<svg width="101" height="113" viewBox="0 0 101 113" fill="none" xmlns="http://www.w3.org/2000/svg">
<path d="M48.6947 103.272L26.7321 110.979V103.963L45.5306 87.4402L43.0342 74.9495C43.0342 74.9495 42.5082 72.8573 42.4023 71.7877C42.3311 71.0676 42.4023 69.6168 42.4023 69.6168V61.3309L2.54287 75.6974L1.00598 69.9509C1.00598 69.9509 0.897205 67.8399 1.60738 66.6766C2.25992 65.6078 4.74796 63.6028 4.74796 63.6028L42.4023 34.2684V18.4987C42.4023 18.4987 42.4416 15.542 42.8032 14.1226C43.0183 13.2785 43.8392 10.6544 43.8392 10.6544C43.8392 10.6544 47.5324 1 50.2615 1C52.9907 1 56.6839 10.6544 56.6839 10.6544C56.6839 10.6544 57.5047 13.2785 57.7198 14.1226C58.0815 15.542 58.1207 18.4987 58.1207 18.4987V34.2684L95.7751 63.6028C95.7751 63.6028 98.2632 65.6078 98.9157 66.6766C99.6259 67.8399 99.5171 69.9509 99.5171 69.9509L97.9802 75.6974L58.1207 61.3309V69.6168C58.1207 69.6168 58.1919 71.0676 58.1207 71.7877C58.0149 72.8573 57.4888 74.9495 57.4888 74.9495L54.9925 87.4402L73.791 103.963V110.979L51.8283 103.272C51.8283 103.272 51.1073 111.112 50.2615 111.112C49.4158 111.112 48.6947 103.272 48.6947 103.272Z" stroke="white" stroke-width="2"/>
</svg>
