<svg width="240" height="240" viewBox="0 0 240 240" fill="none" xmlns="http://www.w3.org/2000/svg">
<path d="M65.4545 32.7273C56.7747 32.7273 48.4504 36.1753 42.3129 42.3129C36.1753 48.4504 32.7273 56.7747 32.7273 65.4545C32.7273 74.1343 36.1753 82.4587 42.3129 88.5962C48.4504 94.7338 56.7747 98.1818 65.4545 98.1818C69.5092 98.1693 73.5263 97.4035 77.3011 95.9233C83.1841 104.879 87.2727 113.841 87.2727 120C87.2727 126.149 83.2096 135.104 77.3437 144.055C73.5541 142.577 69.5222 141.819 65.4545 141.818C56.7747 141.818 48.4504 145.266 42.3129 151.404C36.1753 157.541 32.7273 165.866 32.7273 174.545C32.7273 183.225 36.1753 191.55 42.3129 197.687C48.4504 203.825 56.7747 207.273 65.4545 207.273C74.1343 207.273 82.4587 203.825 88.5962 197.687C94.7338 191.55 98.1818 183.225 98.1818 174.545C98.1682 170.514 97.4097 166.519 95.9446 162.763C104.927 156.845 113.886 152.727 120 152.727C126.104 152.727 135.034 156.822 144.013 162.72C142.557 166.492 141.813 170.502 141.818 174.545C141.818 183.225 145.266 191.55 151.404 197.687C157.541 203.825 165.866 207.273 174.545 207.273C183.225 207.273 191.55 203.825 197.687 197.687C203.825 191.55 207.273 183.225 207.273 174.545C207.273 165.866 203.825 157.541 197.687 151.404C191.55 145.266 183.225 141.818 174.545 141.818C170.491 141.831 166.474 142.596 162.699 144.077C156.816 135.121 152.727 126.159 152.727 120C152.727 113.851 156.79 104.896 162.656 95.9446C162.663 95.9517 162.671 95.9588 162.678 95.9659C166.462 97.434 170.486 98.1855 174.545 98.1818C183.225 98.1818 191.55 94.7338 197.687 88.5962C203.825 82.4587 207.273 74.1343 207.273 65.4545C207.273 56.7747 203.825 48.4504 197.687 42.3129C191.55 36.1753 183.225 32.7273 174.545 32.7273C165.866 32.7273 157.541 36.1753 151.404 42.3129C145.266 48.4504 141.818 56.7747 141.818 65.4545C141.832 69.4864 142.59 73.481 144.055 77.2372C135.073 83.1548 126.114 87.2727 120 87.2727C113.896 87.2727 104.966 83.1784 95.9872 77.2798C97.443 73.5075 98.1871 69.498 98.1818 65.4545C98.1818 56.7747 94.7338 48.4504 88.5962 42.3129C82.4587 36.1753 74.1343 32.7273 65.4545 32.7273ZM65.4545 43.6364C71.2411 43.6364 76.7906 45.935 80.8823 50.0267C84.974 54.1185 87.2727 59.668 87.2727 65.4545C87.2701 67.1188 87.0771 68.7773 86.6974 70.3977C81.7033 66.3741 76.9599 62.1187 73.1676 57.7415C71.1588 55.7317 68.445 54.585 65.6037 54.5454C64.1461 54.5259 62.6994 54.7986 61.349 55.3475C59.9986 55.8965 58.772 56.7105 57.7415 57.7415C55.6961 59.7873 54.5471 62.5617 54.5471 65.4545C54.5471 68.3474 55.6961 71.1218 57.7415 73.1676C57.9465 73.3749 58.1597 73.574 58.3807 73.7642C62.553 77.4055 66.6189 81.9202 70.4616 86.6761C68.8213 87.0678 67.141 87.268 65.4545 87.2727C59.668 87.2727 54.1185 84.974 50.0267 80.8823C45.935 76.7906 43.6364 71.2411 43.6364 65.4545C43.6364 59.668 45.935 54.1185 50.0267 50.0267C54.1185 45.935 59.668 43.6364 65.4545 43.6364ZM174.545 43.6364C180.332 43.6364 185.882 45.935 189.973 50.0267C194.065 54.1185 196.364 59.668 196.364 65.4545C196.364 71.2411 194.065 76.7906 189.973 80.8823C185.882 84.974 180.332 87.2727 174.545 87.2727C172.866 87.2664 171.193 87.0662 169.56 86.6761C173.602 81.6666 177.872 76.9106 182.258 73.1676C184.304 71.1218 185.453 68.3474 185.453 65.4545C185.453 62.5617 184.304 59.7873 182.258 57.7415C180.213 55.6961 177.438 54.5471 174.545 54.5471C171.653 54.5471 168.878 55.6961 166.832 57.7415C166.633 57.933 166.441 58.132 166.257 58.3381C162.574 62.5036 158.068 66.5672 153.324 70.3977C152.937 68.7782 152.737 67.1196 152.727 65.4545C152.727 59.668 155.026 54.1185 159.118 50.0267C163.209 45.935 168.759 43.6364 174.545 43.6364ZM65.4545 152.727C67.1339 152.734 68.8069 152.934 70.4403 153.324C66.3984 158.333 62.1282 163.089 57.7415 166.832C55.6961 168.878 54.5471 171.653 54.5471 174.545C54.5471 177.438 55.6961 180.213 57.7415 182.259C59.7873 184.304 62.5617 185.453 65.4545 185.453C68.3474 185.453 71.1218 184.304 73.1676 182.259C73.3668 182.067 73.5587 181.868 73.7429 181.662C77.426 177.496 81.9324 173.433 86.6761 169.602C87.063 171.222 87.2631 172.88 87.2727 174.545C87.2727 180.332 84.974 185.882 80.8823 189.973C76.7906 194.065 71.2411 196.364 65.4545 196.364C59.668 196.364 54.1185 194.065 50.0267 189.973C45.935 185.882 43.6364 180.332 43.6364 174.545C43.6364 168.759 45.935 163.209 50.0267 159.118C54.1185 155.026 59.668 152.727 65.4545 152.727ZM174.545 152.727C180.332 152.727 185.882 155.026 189.973 159.118C194.065 163.209 196.364 168.759 196.364 174.545C196.364 180.332 194.065 185.882 189.973 189.973C185.882 194.065 180.332 196.364 174.545 196.364C168.759 196.364 163.209 194.065 159.118 189.973C155.026 185.882 152.727 180.332 152.727 174.545C152.73 172.881 152.923 171.223 153.302 169.602C158.297 173.626 163.04 177.881 166.832 182.258C168.878 184.304 171.653 185.453 174.545 185.453C177.438 185.453 180.213 184.304 182.258 182.258C184.304 180.213 185.453 177.438 185.453 174.545C185.453 171.653 184.304 168.878 182.258 166.832C182.071 166.673 181.892 166.463 181.704 166.3C181.676 166.278 181.648 166.257 181.619 166.235C177.447 162.595 173.381 158.08 169.538 153.324C171.179 152.932 172.859 152.732 174.545 152.727Z" fill="black"/>
<circle cx="65.6842" cy="65.6842" r="8.10526" fill="#D9D9D9" stroke="black" stroke-width="4"/>
<circle cx="65.6842" cy="174.316" r="8.10526" fill="#D9D9D9" stroke="black" stroke-width="4"/>
<circle cx="174.316" cy="174.316" r="8.10526" fill="#D9D9D9" stroke="black" stroke-width="4"/>
<circle cx="174.316" cy="65.6842" r="8.10526" fill="#D9D9D9" stroke="black" stroke-width="4"/>
<circle cx="120" cy="120" r="13.4211" fill="#D9D9D9" stroke="#676974" stroke-width="6"/>
</svg>
